<svg xmlns="http://www.w3.org/2000/svg" width="24" height="24" viewBox="0 0 24 24">
  <g id="vuesax_outline_arrow-circle-left" data-name="vuesax/outline/arrow-circle-left" transform="translate(-428 -252)">
    <g id="arrow-circle-left">
      <path id="Vector" d="M10.75,21.5A10.75,10.75,0,1,1,21.5,10.75,10.759,10.759,0,0,1,10.75,21.5Zm0-20A9.25,9.25,0,1,0,20,10.75,9.261,9.261,0,0,0,10.75,1.5Z" transform="translate(429.25 253.25)" fill="#292d32"/>
      <path id="Vector-2" data-name="Vector" d="M4.278,8.558a.742.742,0,0,1-.53-.22L.218,4.807a.754.754,0,0,1,0-1.06L3.747.218a.75.75,0,0,1,1.06,1.06l-3,3,3,3a.754.754,0,0,1,0,1.06A.71.71,0,0,1,4.278,8.558Z" transform="translate(436.983 259.723)" fill="#292d32"/>
      <path id="Vector-3" data-name="Vector" d="M0,0H24V24H0Z" transform="translate(428 252)" fill="none" opacity="0"/>
    </g>
  </g>
</svg>
